<?xml version="1.0" encoding="UTF-8" standalone="no"?>
<!-- Generator: Adobe Illustrator 19.2.1, SVG Export Plug-In . SVG Version: 6.00 Build 0)  -->

<svg
   xmlns:dc="http://purl.org/dc/elements/1.1/"
   xmlns:cc="http://creativecommons.org/ns#"
   xmlns:rdf="http://www.w3.org/1999/02/22-rdf-syntax-ns#"
   xmlns:svg="http://www.w3.org/2000/svg"
   xmlns="http://www.w3.org/2000/svg"
   xmlns:sodipodi="http://sodipodi.sourceforge.net/DTD/sodipodi-0.dtd"
   xmlns:inkscape="http://www.inkscape.org/namespaces/inkscape"
   version="1.1"
   id="layer"
   x="0px"
   y="0px"
   viewBox="0 0 640 161"
   xml:space="preserve"
   sodipodi:docname="xilinx-logo.svg"
   width="640"
   height="161"
   inkscape:version="0.92.2 5c3e80d, 2017-08-06"><metadata
     id="metadata37"><rdf:RDF><cc:Work
         rdf:about=""><dc:format>image/svg+xml</dc:format><dc:type
           rdf:resource="http://purl.org/dc/dcmitype/StillImage" /><dc:title></dc:title></cc:Work></rdf:RDF></metadata><defs
     id="defs35" /><sodipodi:namedview
     pagecolor="#ffffff"
     bordercolor="#666666"
     borderopacity="1"
     objecttolerance="10"
     gridtolerance="10"
     guidetolerance="10"
     inkscape:pageopacity="0"
     inkscape:pageshadow="2"
     inkscape:window-width="767"
     inkscape:window-height="480"
     id="namedview33"
     showgrid="false"
     fit-margin-top="20"
     fit-margin-bottom="20"
     fit-margin-right="20"
     fit-margin-left="20"
     inkscape:zoom="0.36196319"
     inkscape:cx="325.2"
     inkscape:cy="76.6"
     inkscape:window-x="0"
     inkscape:window-y="0"
     inkscape:window-maximized="0"
     inkscape:current-layer="layer" /><style
     type="text/css"
     id="style2">
	.st0{fill:#EE3A25;}
	.st1{fill:#B31E3B;}
</style><g
     id="g30"
     transform="translate(-0.8,-241.6)"><g
       id="g28"><polygon
         class="st0"
         points="85.8,261.6 59.5,292 20.8,292 47.1,261.6 "
         id="polygon4"
         style="fill:#ee3a25" /><polygon
         class="st1"
         points="85.8,322.1 59.5,292 20.8,292 47.1,322.1 "
         id="polygon6"
         style="fill:#b31e3b" /><polygon
         class="st0"
         points="85.8,322.1 59.5,352.2 20.8,352.2 47.1,322.1 "
         id="polygon8"
         style="fill:#ee3a25" /><polygon
         class="st1"
         points="85.8,382.2 59.5,352.2 20.8,352.2 47.1,382.2 "
         id="polygon10"
         style="fill:#b31e3b" /><polygon
         class="st0"
         points="111.7,292 138,261.6 85.8,261.6 "
         id="polygon12"
         style="fill:#ee3a25" /><polygon
         class="st1"
         points="111.7,352.2 138,382.6 85.8,382.6 "
         id="polygon14"
         style="fill:#b31e3b" /><polygon
         points="204.7,382.2 188.1,382.2 225.1,320.7 190.5,261.6 207.1,261.6 233,307.6 258.9,261.6 275.9,261.6 241,320.7 278.3,382.2 261.4,382.2 233,333.5 "
         id="polygon16" /><rect
         x="287.29999"
         y="261.60001"
         width="14.5"
         height="120.6"
         id="rect18" /><polygon
         points="336,261.6 336,369.1 385.8,369.1 385.8,382.2 321.5,382.2 321.5,261.6 "
         id="polygon20" /><rect
         x="397.89999"
         y="261.60001"
         width="14.5"
         height="120.6"
         id="rect22" /><polygon
         points="447,382.2 432.4,382.2 432.4,261.6 445.6,261.6 507.4,354.6 507.4,261.6 522,261.6 522,382.2 508.5,382.2 447,289.3 "
         id="polygon24" /><polygon
         points="547.2,382.2 530.6,382.2 567.6,320.7 533,261.6 549.9,261.6 575.9,307.6 601.4,261.6 618.4,261.6 583.8,320.7 620.8,382.2 604.2,382.2 575.9,333.5 "
         id="polygon26" /></g></g></svg>