<?xml version="1.0" encoding="utf-8"?>
<!-- Generator: Adobe Illustrator 19.2.1, SVG Export Plug-In . SVG Version: 6.00 Build 0)  -->
<svg version="1.1" id="layer" xmlns="http://www.w3.org/2000/svg" xmlns:xlink="http://www.w3.org/1999/xlink" x="0px" y="0px"
	 viewBox="0 0 652 652" style="enable-background:new 0 0 652 652;" xml:space="preserve">
<style type="text/css">
	.st0{fill:#EE3A25;}
	.st1{fill:#B31E3B;}
</style>
<g>
	<g>
		<polygon class="st0" points="20.8,292 47.1,261.6 85.8,261.6 59.5,292 		"/>
		<polygon class="st1" points="20.8,292 47.1,322.1 85.8,322.1 59.5,292 		"/>
		<polygon class="st0" points="20.8,352.2 47.1,322.1 85.8,322.1 59.5,352.2 		"/>
		<polygon class="st1" points="20.8,352.2 47.1,382.2 85.8,382.2 59.5,352.2 		"/>
		<polygon class="st0" points="138,261.6 85.8,261.6 111.7,292 		"/>
		<polygon class="st1" points="138,382.6 85.8,382.6 111.7,352.2 		"/>
		<polygon points="261.4,382.2 233,333.5 204.7,382.2 188.1,382.2 225.1,320.7 190.5,261.6 207.1,261.6 233,307.6 258.9,261.6 
			275.9,261.6 241,320.7 278.3,382.2 		"/>
		<rect x="287.3" y="261.6" width="14.5" height="120.6"/>
		<polygon points="321.5,382.2 321.5,261.6 336,261.6 336,369.1 385.8,369.1 385.8,382.2 		"/>
		<rect x="397.9" y="261.6" width="14.5" height="120.6"/>
		<polygon points="508.5,382.2 447,289.3 447,382.2 432.4,382.2 432.4,261.6 445.6,261.6 507.4,354.6 507.4,261.6 522,261.6 
			522,382.2 		"/>
		<polygon points="604.2,382.2 575.9,333.5 547.2,382.2 530.6,382.2 567.6,320.7 533,261.6 549.9,261.6 575.9,307.6 601.4,261.6 
			618.4,261.6 583.8,320.7 620.8,382.2 		"/>
	</g>
</g>
</svg>
